/* XPM */
static char*turtle[]={
"39 39 7 1",
"d c #00ff00",
"a c #bdbdbd",
"c c #000000",
"b c #ffff00",
"# c #7b7b7b",
". c #ffffff",
"e c #ff0000",
".......................................",
"......................................#",
"..aaaaaaaaaaaaaaaaaaaaaaaaaaaaaaaaaaa##",
"..aaaaaaaaaaaaaaaaaaaaaaaaaaaaaaaaaaa##",
"..aabbbbbbbbbbbbbbbbbbbbbbbbbbbbbbbba##",
"..aabbcbbbbbbbbbbbbbbbbbbbbbbbbbbbbba##",
"..aabbcbcccccccccccccccccccccccccccba##",
"..aabbbbbcccccccccccccccccccccccccbba##",
"..aabbbbbcccccccccccccccccccccccccbba##",
"..aabbbbcccccccccccccdddddcccccccccba##",
"..aabbbbbccccccccccdddcccdddccccccbba##",
"..aabbcbbcccccccccddcceeeccddcccccbba##",
"..aabbcbcccccccccddceeeceeecddcccccba##",
"..aabbbbbcccccccddceeccdcceecdccccbba##",
"..aabbbbbccccccddceecdddddcecddcccbba##",
"..aabbbbccccccddceecddcccdceecdccccba##",
"..aabbbbbcccccdccecddceecddcecdcccbba##",
"..aabbcbbccccddcecddcedecdceecdcccbba##",
"..aabbcbcccccdceecdcedecddcecddccccba##",
"..aabbbbbccccdcecddceecddceecdccccbba##",
"..aabbbbbccccdceecdcccddceecddccccbba##",
"..aabbbbcccccddcecdddddceecddccccccba##",
"..aabbbbbcccccdceeccdcceecddccccccbba##",
"..aabbcbbcccccddceeeceeecddcccccccbba##",
"..aabbcbcccccccddcceeeccddcccccccccba##",
"..aabbbbbcccccccdddcccdddcccccccccbba##",
"..aabbbbbcccccccccdddddcccccccccccbba##",
"..aabbbbcccccccccccccccccccccccccccba##",
"..aabbbbbcccccccccccccccccccccccccbba##",
"..aabbcbbcccccccccccccccccccccccccbba##",
"..aabbcbcccccccccccccccccccccccccccba##",
"..aabbbbbcbbcbbcbbcbbcbbcbbcbbcbbcbba##",
"..aabbbbbbbbbbbbbbbbbbbbbbbbbbbbbbbba##",
"..aabbbbbcbbbbbcbbbbbcbbbbbcbbbbbcbba##",
"..aabbbbbcbbbbbcbbbbbcbbbbbcbbbbbcbba##",
"..aabbbbbbbbbbbbbbbbbbbbbbbbbbbbbbbba##",
"..aaaaaaaaaaaaaaaaaaaaaaaaaaaaaaaaaaa##",
"..#####################################",
".######################################"};
