/* XPM */
static char*trans[]={
"39 39 6 1",
"b c #00ff00",
"a c #bdbdbd",
"d c #000000",
"# c #7b7b7b",
". c #ffffff",
"c c #ff0000",
".......................................",
"......................................#",
"..aaaaaaaaaaaaaaaaaaaaaaaaaaaaaaaaaaa##",
"..aaaaaaaaaaaaaaaaaaaaaaaaaaaaaaaaaaa##",
"..aabbbbbbbbbbbbccccbccccbbbbbbbbbbba##",
"..aabbbbbbbbbbbbccccbccccbbbbbbbbbbba##",
"..aabbbbbbbbbbbbccccbccccbbbbbbbbbbba##",
"..aabbbbbbbbbbbbccccbccccbbbbbbbbbbba##",
"..aabbbbbbbbbbbbccccbccccbbbbbbbbbbba##",
"..aabbbbbbbbbbbbbbbbbbbbbbbbbbbbbbbba##",
"..aabbbbbbbbbbbbbddbbbbbbbbbbbbbbbbba##",
"..aabbbbbbbbbbbbdbbddbbbbbbbbbbbbbbba##",
"..aabbbbbbbbbbddbbbbbdbbbbbbbbbbbbbba##",
"..aabbbbbbbbbdbbbbbbbbdbbbbbbbbbbbbba##",
"..aabbbbbbbddbbbbbbbbbbdbbbbbbbbbbbba##",
"..aabbbbbbdbbbbbbbbbbbbbddbbbbbbbbbba##",
"..aabbbbddbbbbbbbbbbbbbbbbddddbbbbbba##",
"..aabbbdbbbbbbbbbbbbbbbbbbbbbbddddbba##",
"..aabddbbbbbbbbbbbbbbbbbbbbbbbbbbbdda##",
"..aadbbbbbb#bbbbbbb#bbbbbbb#bbbbbbbba##",
"..aa################################a##",
"..aabbbbbbb#bbbbbbb#bbbbbbb#bbbbbbbda##",
"..aaddddddbbbbbbbbbbbbbbbbbbbbbbbddba##",
"..aabbbbbdddbbbbbbbbbbbbbbbbbbbbdbbba##",
"..aabbbbbbbbdddbbbbbbbbbbbbbbbddbbbba##",
"..aabbbbbbbbbbbddbbbbbbbbbbbddbbbbbba##",
"..aabbbbbbbbbbbbbddbbbbbbbbdbbbbbbbba##",
"..aabbbbbbbbbbbbbbbdbbbbbddbbbbbbbbba##",
"..aabbbbbbbbbbbbbbbbdbbbdbbbbbbbbbbba##",
"..aabbbbbbbbbbbbbbbbbdddbbbbbbbbbbbba##",
"..aabbbbbbbbbbbbbbbbbbbbbbbbbbbbbbbba##",
"..aabbbbbbbbbbbbccccbccccbbbbbbbbbbba##",
"..aabbbbbbbbbbbbccccbccccbbbbbbbbbbba##",
"..aabbbbbbbbbbbbccccbccccbbbbbbbbbbba##",
"..aabbbbbbbbbbbbccccbccccbbbbbbbbbbba##",
"..aabbbbbbbbbbbbccccbccccbbbbbbbbbbba##",
"..aaaaaaaaaaaaaaaaaaaaaaaaaaaaaaaaaaa##",
"..#####################################",
".######################################"};
